<svg width="1920" height="1080" fill="none" xmlns="http://www.w3.org/2000/svg"><path fill-rule="evenodd" clip-rule="evenodd" d="M0 .302h1716.23c-21.66 2.244-48.52 19.339-100.73 124.965-68 137.561-346.33 136.961-477 119.466-166-41.488-520.8-53.485-612 230.436C435.3 759.09 137.5 779.084 0 753.591V.301Z" fill="#F79400" fill-opacity=".12"/><path d="M1920 703.106V.302h-203.77c-21.66 2.244-48.52 19.339-100.73 124.965-68 137.561-346.33 136.961-477 119.466-166-41.488-520.8-53.485-612 230.436C435.3 759.09 137.5 779.084 0 753.591V1080h1138.5c-194.5 0-539.8-127.564-559-307.914-19.2-180.349 199.333-274.757 323-296.917 11.235 0 22.96-.113 35.114-.23h.005c157.141-1.512 386.101-3.714 558.881 228.167 201.5 270.424 387 182.949 423.5 0Z" fill="#F79400" fill-opacity=".2"/><path d="M1920 1080V703.106c-36.5 182.949-222 270.424-423.5 0-172.78-231.881-401.74-229.679-558.881-228.167h-.005c-12.154.117-23.879.23-35.114.23-123.667 22.16-342.2 116.568-323 296.917C598.7 952.436 944 1080 1138.5 1080H1920Z" fill="#F79400" fill-opacity=".12"/></svg>